<svg id="Layer_1" data-name="Layer 1" xmlns="http://www.w3.org/2000/svg" viewBox="0 0 24 24"><defs><style>.cls-1{fill:#004e98;}.cls-2{fill:#029cde;}</style></defs><title>edit</title><rect class="cls-1" x="17.87" y="3.32" width="4.42" height="1.66" transform="translate(8.82 -12.98) rotate(45)"/><rect class="cls-1" x="11.81" y="3.02" width="4.42" height="14.37" transform="translate(11.32 -6.92) rotate(45)"/><path class="cls-1" d="M10.11,17.24,7,14.12,6.41,17a.72.72,0,0,0,.84.84Z"/><path class="cls-2" d="M19,20H5V6h6a1,1,0,0,0,1-1h0a1,1,0,0,0-1-1H3V22H21V14a1,1,0,0,0-1-1h0a1,1,0,0,0-1,1Z"/></svg>