<svg id="Layer_1" data-name="Layer 1" xmlns="http://www.w3.org/2000/svg" viewBox="0 0 24 24"><defs><style>.cls-1{fill:#004e98;}</style></defs><title>hammer</title><path class="cls-1" d="M20.06,11.36,20,11.26,18.15,9.19,18.32,9a.54.54,0,0,0,0-.74L16.54,6.24a.51.51,0,0,0-.73,0l-.16.15L14,4.5a.33.33,0,0,0-.47-.07l-.09.08-.63-.71.63-.59-.72-.82a.75.75,0,0,0-1.06-.1L8.93,4.83a.79.79,0,0,0,0,1.09l.72.82.63-.59.63.71-.41.38a.35.35,0,0,0,0,.49l1.66,1.88L2.17,19a.54.54,0,0,0,0,.74l1.81,2.05a.51.51,0,0,0,.73,0l10-9.42,1.05,1.19a.36.36,0,0,0,.38.11c1.27-.42,2.94.38,4.24,1.58.21.2.5.12.54-.14A6.25,6.25,0,0,0,20.06,11.36Z"/></svg>