<svg id="Layer_1" data-name="Layer 1" xmlns="http://www.w3.org/2000/svg" viewBox="0 0 24 24"><defs><style>.cls-1{fill:#004e98;}.cls-2{fill:#029cde;}</style></defs><title>hand</title><path class="cls-1" d="M10,22.5a3.73,3.73,0,0,1-3.36-2.07l-3.52-7A1.8,1.8,0,0,1,6,11.31L7.5,12.79V4a1.5,1.5,0,0,1,3,0V3a1.5,1.5,0,0,1,3,0V4a1.5,1.5,0,0,1,3,0V6a1.5,1.5,0,0,1,3,0V18.67a3.83,3.83,0,0,1-3.83,3.83Z"/><path class="cls-2" d="M12,2a1,1,0,0,1,1,1v8h1V4a1,1,0,1,1,2,0v7h1V6a1,1,0,0,1,2,0V18.67A3.33,3.33,0,0,1,15.67,22H10A3.25,3.25,0,0,1,7.1,20.2l-3.52-7a1.3,1.3,0,0,1,.58-1.74h0a1.3,1.3,0,0,1,1.5.24l1.83,1.83a.29.29,0,0,0,.21.09.3.3,0,0,0,.3-.3V4a1,1,0,1,1,2,0v7h1V3a1,1,0,0,1,1-1m0-1a2,2,0,0,0-1.89,1.34A2,2,0,0,0,7,4v7.59L6.37,11a2.28,2.28,0,0,0-1.63-.67,2.31,2.31,0,0,0-1,.24,2.3,2.3,0,0,0-1,3.09l3.52,7A4.23,4.23,0,0,0,10,23h5.66A4.33,4.33,0,0,0,20,18.67V6a2,2,0,0,0-3-1.73V4a2,2,0,0,0-3.11-1.66A2,2,0,0,0,12,1Z"/><path class="cls-2" d="M10.5,12h0a.5.5,0,0,1-.5-.5V11h1v.5A.5.5,0,0,1,10.5,12Z"/><path class="cls-2" d="M13.5,12h0a.5.5,0,0,1-.5-.5V11h1v.5A.5.5,0,0,1,13.5,12Z"/><path class="cls-2" d="M16.5,12h0a.5.5,0,0,1-.5-.5V11h1v.5A.5.5,0,0,1,16.5,12Z"/></svg>