<svg id="Layer_1" data-name="Layer 1" xmlns="http://www.w3.org/2000/svg" viewBox="0 0 24 24"><defs><style>.cls-1{fill:none;}.cls-2{fill:#004e98;}.cls-3{fill:#029cde;}</style></defs><title>link</title><path class="cls-1" d="M16.5,9.19l1-1a2.38,2.38,0,0,0,0-3.41l-.37-.36a2.49,2.49,0,0,0-3.47,0L9.24,8.77A2.37,2.37,0,0,0,8.59,11L9.9,9.72A5.21,5.21,0,0,1,16.5,9.19Z"/><path class="cls-1" d="M11.35,15.93a5.25,5.25,0,0,1-3-.92l-.95.93a2.33,2.33,0,0,0,0,3.33l.36.35a2.44,2.44,0,0,0,3.39,0l4.39-4.31a2.32,2.32,0,0,0,.66-2.08L15,14.44A5.23,5.23,0,0,1,11.35,15.93Z"/><path class="cls-1" d="M11.84,11.63,10.39,13a2.49,2.49,0,0,0,2.7-.51l1.42-1.39a2.42,2.42,0,0,0-2.67.48Z"/><path class="cls-2" d="M19.5,2.85l-.36-.36a5.15,5.15,0,0,0-7.25,0L7.49,6.87A5.07,5.07,0,0,0,6.71,13l2-2A2.4,2.4,0,0,1,9.4,8.77l4.4-4.38a2.44,2.44,0,0,1,3.43,0l.36.36a2.4,2.4,0,0,1,0,3.41l-1,1a5,5,0,0,1,.66.54l.36.35a5,5,0,0,1,.81,1.09l1.12-1.11A5.09,5.09,0,0,0,19.5,2.85Z"/><path class="cls-2" d="M10.39,13l-2,2A5.25,5.25,0,0,0,15,14.44l1.23-1.21A2.32,2.32,0,0,0,15.59,12l-.36-.35a2.39,2.39,0,0,0-.73-.48l-1.42,1.39A2.49,2.49,0,0,1,10.39,13Z"/><path class="cls-3" d="M15.58,15.31l-4.39,4.31a2.43,2.43,0,0,1-3.39,0l-.36-.35a2.33,2.33,0,0,1,0-3.33L8.38,15a5.14,5.14,0,0,1-.71-.57l-.37-.36a5.05,5.05,0,0,1-.79-1l-1,1a5,5,0,0,0,0,7.13l.36.35a5.2,5.2,0,0,0,7.26,0l4.39-4.31a5,5,0,0,0,.82-6l-2.09,2.06A2.33,2.33,0,0,1,15.58,15.31Z"/><path class="cls-3" d="M9.61,12.54a2.44,2.44,0,0,0,.78.51l1.45-1.42a2.42,2.42,0,0,1,2.67-.48l2-2a5.21,5.21,0,0,0-6.6.54L8.59,11a2.38,2.38,0,0,0,.65,1.17Z"/><path class="cls-2" d="M7.67,14.44a5.15,5.15,0,0,0,.71.57l2-2a2.44,2.44,0,0,1-.78-.51l-.37-.36A2.38,2.38,0,0,1,8.59,11L6.52,13a5.05,5.05,0,0,0,.79,1Z"/><path class="cls-3" d="M17.17,9.72a5.08,5.08,0,0,0-.67-.54l-2,2a2.39,2.39,0,0,1,.73.48l.36.35a2.32,2.32,0,0,1,.66,1.25l2.1-2.06a5,5,0,0,0-.82-1.09Z"/></svg>