<svg id="Layer_1" data-name="Layer 1" xmlns="http://www.w3.org/2000/svg" viewBox="0 0 24 24"><defs><style>.cls-1{fill:#004e98;}.cls-2{fill:#029cde;}</style></defs><title>lock</title><path class="cls-1" d="M12,3a3,3,0,0,1,3,3v5a3,3,0,0,1-6,0V6a3,3,0,0,1,3-3m0-2A5,5,0,0,0,7,6v5a5,5,0,0,0,10,0V6a5,5,0,0,0-5-5Z"/><rect class="cls-1" x="4" y="8" width="16" height="15" rx="1.89" ry="1.89"/><path class="cls-2" d="M14.52,14.16a2.6,2.6,0,0,0-4.16-2,1.46,1.46,0,0,0-.43.44,2.61,2.61,0,0,0,.86,3.84l-.34,3.37H13.5l-.37-3.35A2.54,2.54,0,0,0,14.52,14.16Z"/></svg>