<svg id="Layer_1" data-name="Layer 1" xmlns="http://www.w3.org/2000/svg" viewBox="0 0 24 24"><defs><style>.cls-1{fill:#004e98;}.cls-2{fill:#029cde;}</style></defs><title>pointer</title><path class="cls-1" d="M10,22.5a3.73,3.73,0,0,1-3.36-2.07l-3.52-7A1.8,1.8,0,0,1,6,11.31L7.5,12.79V4a1.5,1.5,0,0,1,3,0V9a1.5,1.5,0,0,1,3,0v.5h.09a1.5,1.5,0,0,1,2.9.28l.07.07A3,3,0,0,1,18,9.5,1.5,1.5,0,0,1,19.5,11v7.67a3.83,3.83,0,0,1-3.83,3.83Z"/><path class="cls-2" d="M9,3a1,1,0,0,1,1,1v6h1V9a1,1,0,0,1,2,0v1h1a1,1,0,0,1,2,0l.5.5A2.19,2.19,0,0,1,18,10a1,1,0,0,1,1,1v7.67A3.33,3.33,0,0,1,15.67,22H10A3.25,3.25,0,0,1,7.1,20.2l-3.52-7a1.3,1.3,0,0,1,2.08-1.5l1.83,1.83a.29.29,0,0,0,.21.09.3.3,0,0,0,.3-.3V4A1,1,0,0,1,9,3M9,2A2,2,0,0,0,7,4v7.59L6.37,11a2.28,2.28,0,0,0-1.63-.67,2.31,2.31,0,0,0-1,.24,2.3,2.3,0,0,0-1,3.09l3.52,7A4.23,4.23,0,0,0,10,23h5.66A4.33,4.33,0,0,0,20,18.67V11a2,2,0,0,0-2-2,3.59,3.59,0,0,0-1.17.19,2,2,0,0,0-2.94-.85A2,2,0,0,0,11,7.27V4A2,2,0,0,0,9,2Z"/><path class="cls-2" d="M10.5,11h0a.5.5,0,0,1-.5-.5V10h1v.5A.5.5,0,0,1,10.5,11Z"/><path class="cls-2" d="M13.5,11h0a.5.5,0,0,1-.5-.5V10h1v.5A.5.5,0,0,1,13.5,11Z"/><path class="cls-2" d="M16.5,11h0a.5.5,0,0,1-.5-.5V10h1v.5A.5.5,0,0,1,16.5,11Z"/></svg>