<svg id="Layer_1" data-name="Layer 1" xmlns="http://www.w3.org/2000/svg" viewBox="0 0 24 24"><defs><style>.cls-1{fill:#004e98;}.cls-2{fill:#029cde;}</style></defs><title>save1</title><path class="cls-1" d="M16.67,1H6.21A1.21,1.21,0,0,0,5,2.21V15H20V4.66ZM15,6.22a.78.78,0,0,1-.78.78H7.78A.78.78,0,0,1,7,6.22V2h5V5.28a.46.46,0,0,0,.46.46h1.08A.46.46,0,0,0,14,5.28V2h1Z"/><path class="cls-2" d="M6.72,16.47l5.38,5.38a.57.57,0,0,0,.81,0l5.38-5.38a.27.27,0,0,0-.19-.47H15V11H10v5H6.91A.27.27,0,0,0,6.72,16.47Z"/></svg>