<svg id="Layer_1" data-name="Layer 1" xmlns="http://www.w3.org/2000/svg" viewBox="0 0 24 24"><defs><style>.cls-1{fill:#004e98;}.cls-2{fill:#029cde;}</style></defs><title>stack</title><polygon class="cls-1" points="22 6 12 1 2 6 12 10 22 6"/><polygon class="cls-1" points="20.65 10.43 22 9.89 22 7.87 12 11.68 12 13.9 20.65 10.43"/><polygon class="cls-1" points="20.65 14.43 22 13.89 22 11.88 12 15.68 12 17.9 20.65 14.43"/><polygon class="cls-1" points="20.65 18.44 22 17.9 22 15.88 12 19.69 12 21.91 20.65 18.44"/><polygon class="cls-2" points="2 9.89 3.35 10.43 12 13.9 12 11.68 2 7.87 2 9.89"/><polygon class="cls-2" points="2 13.89 3.35 14.43 12 17.9 12 15.68 2 11.88 2 13.89"/><polygon class="cls-2" points="2 17.9 3.35 18.44 12 21.91 12 19.69 2 15.88 2 17.9"/></svg>