<svg id="Layer_1" data-name="Layer 1" xmlns="http://www.w3.org/2000/svg" viewBox="0 0 24 24"><defs><style>.cls-1{fill:#004e98;}.cls-2{fill:none;stroke:#029cde;stroke-linecap:round;stroke-miterlimit:10;stroke-width:1.5px;}</style></defs><title>stopWatch</title><path class="cls-1" d="M20.08,12.3H20a8.46,8.46,0,0,0-6.52-6.89V4.12h1V3.39A1.41,1.41,0,0,0,13,2H10.08A1.41,1.41,0,0,0,8.66,3.39v.72h1v1.3A8.39,8.39,0,0,0,11.55,22,8.5,8.5,0,0,0,20,14.9h.09A.91.91,0,0,0,21,14V13.2A.91.91,0,0,0,20.08,12.3Z"/><polyline class="cls-2" points="12.46 8.37 12.46 14.16 9.78 16.84"/></svg>