<svg id="Layer_1" data-name="Layer 1" xmlns="http://www.w3.org/2000/svg" viewBox="0 0 24 24"><defs><style>.cls-1{fill:#004e98;}.cls-2{fill:#029cde;}</style></defs><title>target</title><path class="cls-1" d="M17,18l-1-1a6.47,6.47,0,0,1-5.36,1.3,6.44,6.44,0,1,1,7.63-7.76A7.1,7.1,0,0,1,17,16l1,1,1.5,0,.69.69A10.05,10.05,0,1,0,17.95,20l-.72-.72Z"/><path class="cls-1" d="M15.47,14a4.19,4.19,0,0,0,.41-3A4.06,4.06,0,0,0,12.62,8a4,4,0,0,0-1.4,7.89,4.29,4.29,0,0,0,3.07-.64"/><polygon class="cls-2" points="20 17 18 17 14 13 15 12 11 11 12 15 13 14 17 18 17 20 20 23 20 20 23 20 20 17"/></svg>