<svg id="Layer_1" data-name="Layer 1" xmlns="http://www.w3.org/2000/svg" viewBox="0 0 24 24"><defs><style>.cls-1{fill:#004e98;}.cls-2{fill:#029cde;}</style></defs><title>timer</title><path class="cls-1" d="M18.54,8.39A1.66,1.66,0,0,0,19,7.29V4h1V2H4V4h.86V7.29a1.66,1.66,0,0,0,.43,1.1l2.46,2.78a1.1,1.1,0,0,1,0,1.5L5.29,15.46a1.66,1.66,0,0,0-.43,1.1v3.25H4v2H20v-2H19V16.56a1.66,1.66,0,0,0-.43-1.1l-2.46-2.78a1.1,1.1,0,0,1,0-1.5Z"/><path class="cls-2" d="M12,6H7V7.1l3.2,4.33a1.16,1.16,0,0,0,.93.49h1.74a1.16,1.16,0,0,0,.93-.49L17,7.1V6Z"/><rect class="cls-2" x="6.92" y="17" width="10.08" height="2.5"/></svg>