<svg id="Layer_1" data-name="Layer 1" xmlns="http://www.w3.org/2000/svg" viewBox="0 0 24 24"><defs><style>.cls-1{fill:none;stroke:#004e98;stroke-linecap:round;stroke-miterlimit:10;stroke-width:2px;}.cls-2{fill:#004e98;}.cls-3{fill:#029cde;}</style></defs><title>unlock</title><path class="cls-1" d="M14.33,13.24A4.13,4.13,0,0,1,8.95,11L7.4,7.14A4.13,4.13,0,0,1,9.67,1.76h0A4.13,4.13,0,0,1,15.05,4"/><rect class="cls-2" x="4" y="8" width="16" height="15" rx="1.89" ry="1.89"/><path class="cls-3" d="M14.52,14.16a2.6,2.6,0,0,0-4.16-2,1.46,1.46,0,0,0-.43.44,2.61,2.61,0,0,0,.86,3.84l-.34,3.37H13.5l-.37-3.35A2.54,2.54,0,0,0,14.52,14.16Z"/></svg>