<svg id="Layer_1" data-name="Layer 1" xmlns="http://www.w3.org/2000/svg" viewBox="0 0 24 24"><defs><style>.cls-1{stroke:#000;stroke-miterlimit:10;stroke-width:0.5px;}</style></defs><title>Bl_attach</title><path class="cls-1" d="M19.43,12.79l0,0,0,0,0,0h0a5.86,5.86,0,0,0-8.35-8.23l-.09.1-7.7,7.7a.67.67,0,0,0,0,.95h0a.67.67,0,0,0,.95,0L12,5.49l.07-.08a4.53,4.53,0,0,1,7,.8,4.58,4.58,0,0,1-.67,5.61h0l0,0L10.37,20A3.22,3.22,0,0,1,5.82,15.4h0L12,9.21,13.84,7.4a1.84,1.84,0,0,1,2.47.11,1.78,1.78,0,0,1,.08,2.43l-1.88,1.91h0L9.11,17.26a.66.66,0,0,0,0,.93h0a.66.66,0,0,0,.93,0L17.26,11a3.13,3.13,0,0,0-4.38-4.46l-8,7.9A4.56,4.56,0,0,0,11.18,21Z"/></svg>