<svg id="Layer_1" data-name="Layer 1" xmlns="http://www.w3.org/2000/svg" viewBox="0 0 24 24"><defs><style>.cls-1{fill:none;}</style></defs><title>Bl_briefcase</title><path class="cls-1" d="M15.83,3H8.17A.17.17,0,0,0,8,3.17V6H8V6h8V3.17A.17.17,0,0,0,15.83,3Z"/><polygon points="6 6 1 6 1 23 6 23 6 6 6 6"/><polygon points="16 6 8 6 8 23 16.02 23 16.02 6 16 6"/><rect x="18" y="6" width="5" height="17"/><path d="M6,6H8V3.17A.17.17,0,0,1,8.17,3h7.66a.17.17,0,0,1,.17.17V6h0V6h2V3.17A2.17,2.17,0,0,0,15.83,1H8.17A2.17,2.17,0,0,0,6,3.17V6H6Z"/><rect x="16.02" y="5.97" width="1.98" height="0.03"/><rect x="8" y="5.98" height="0.02"/><rect x="6" y="5.98" width="2" height="0.02"/><rect x="5.88" y="21" width="12.17" height="1.99"/></svg>