<svg id="Layer_1" data-name="Layer 1" xmlns="http://www.w3.org/2000/svg" viewBox="0 0 24 24"><title>Bl_noAlert</title><path d="M5,12s-2,2-2,3v2H13.88L5.39,8.51A14.6,14.6,0,0,0,5,12Z"/><path d="M21,15c0-1-2-3-2-3,0-5-2-9-7-9A6.15,6.15,0,0,0,6.69,5.57L18.12,17H21Z"/><path d="M8.17,18a4,4,0,0,0,7.44.73L14.88,18Z"/><path d="M14.88,18h1a4,4,0,0,1-.28.73l2.33,2.33a1.5,1.5,0,0,0,2.12-2.12L18.12,17H13.88Z"/><path d="M4.56,3.44A1.5,1.5,0,0,0,2.44,5.56l3,3a8.61,8.61,0,0,1,1.3-2.94Z"/><path d="M14.88,18l.73.73a4,4,0,0,0,.28-.73Z"/></svg>