<svg id="Layer_1" data-name="Layer 1" xmlns="http://www.w3.org/2000/svg" viewBox="0 0 24 24"><title>Bl_settings</title><path d="M22,13.94V11l-3.08-.28a7.65,7.65,0,0,0-.81-2.06l2-2.5L18.07,4,15.71,6.11a6.9,6.9,0,0,0-2.05-.89L13.37,2H10.53l-.26,3.23a6.91,6.91,0,0,0-2,.87L5.93,4l-2,2.11,2,2.5a7.65,7.65,0,0,0-.82,2.06L2,11v3l3.06.3a7.65,7.65,0,0,0,.85,2.16l-2,2.47,2,2.11,2.38-2.07a6.91,6.91,0,0,0,2,.86L10.53,23h2.84l.29-3.22a6.9,6.9,0,0,0,2-.87L18.07,21l2-2.11-2-2.47a7.65,7.65,0,0,0,.85-2.15ZM12,16.71a4,4,0,1,1,4-4A4,4,0,0,1,12,16.71Z"/></svg>