<svg id="Layer_1" data-name="Layer 1" xmlns="http://www.w3.org/2000/svg" viewBox="0 0 24 24"><title>Bl_tools</title><path d="M13.89,21.94a3.58,3.58,0,1,0,1.86-6.05L8.63,8.51a3.58,3.58,0,0,0-4.87-4l.73.73,1.44.39a.71.71,0,0,1,.5.5l.39,1.47a.71.71,0,0,1-.18.69L5.57,9.36a.71.71,0,0,1-.69.18L3.41,9.15a.71.71,0,0,1-.5-.5L2.52,7.21l-.73-.73a3.58,3.58,0,0,0,4,4.87l7.11,7.36A3.58,3.58,0,0,0,13.89,21.94Zm1-1.49-.29-1.07a.81.81,0,0,1,.21-.78l.78-.78a.81.81,0,0,1,.78-.21l1.07.29a.81.81,0,0,1,.57.57l.29,1.07a.81.81,0,0,1-.21.78l-.78.78a.81.81,0,0,1-.78.21L15.44,21A.81.81,0,0,1,14.87,20.45Z"/><path d="M21.06,10.36,21,10.26,19.15,8.19,19.32,8a.54.54,0,0,0,0-.74L17.54,5.24a.51.51,0,0,0-.73,0l-.16.15L15,3.5a.33.33,0,0,0-.47-.07l-.09.08-.63-.71.63-.59-.72-.82a.75.75,0,0,0-1.06-.1L9.93,3.83a.79.79,0,0,0,0,1.09l.72.82.63-.59.63.71-.41.38a.35.35,0,0,0,0,.49l1.66,1.88-1.75,1.66,2.67,2.68,1.59-1.51,1.05,1.19a.36.36,0,0,0,.38.11c1.27-.42,2.94.38,4.24,1.58.21.2.5.12.54-.14A6.25,6.25,0,0,0,21.06,10.36Z"/><path d="M2.17,19a.54.54,0,0,0,0,.74l1.81,2.05a.51.51,0,0,0,.73,0l5.48-5.19L7.38,14.1Z"/></svg>