<svg id="Layer_1" data-name="Layer 1" xmlns="http://www.w3.org/2000/svg" viewBox="0 0 24 24"><title>Bl_wrench</title><path d="M14.89,19.94a3.58,3.58,0,1,0,1.86-6.05L10.63,7.51a3.58,3.58,0,0,0-4.87-4l.73.73,1.44.39a.71.71,0,0,1,.5.5l.39,1.47a.71.71,0,0,1-.18.69L7.57,8.36a.71.71,0,0,1-.69.18L5.41,8.15a.71.71,0,0,1-.5-.5L4.52,6.21l-.73-.73a3.58,3.58,0,0,0,4,4.87l6.11,6.36A3.58,3.58,0,0,0,14.89,19.94Zm1-1.49-.29-1.07a.81.81,0,0,1,.21-.78l.78-.78a.81.81,0,0,1,.78-.21l1.07.29a.81.81,0,0,1,.57.57l.29,1.07a.81.81,0,0,1-.21.78l-.78.78a.81.81,0,0,1-.78.21L16.44,19A.81.81,0,0,1,15.87,18.45Z"/></svg>