<svg id="Layer_1" data-name="Layer 1" xmlns="http://www.w3.org/2000/svg" viewBox="0 0 24 24"><defs><style>.cls-1{fill:#004e98;}.cls-2{fill:#029cde;}</style></defs><title>alarm</title><path class="cls-1" d="M12,3.44c5.9,0,6.78,5.64,6.78,9v.41l.29.29A8.13,8.13,0,0,1,21,15.78V17H3V15.78a8.1,8.1,0,0,1,1.93-2.63l.29-.29v-.41c0-3.36.88-9,6.78-9m0-1h0c-5.52,0-7.78,4.48-7.78,10,0,0-2.22,2.22-2.22,3.33V18H22V15.78c0-1.11-2.22-3.33-2.22-3.33,0-5.52-2.25-10-7.78-10Z"/><path class="cls-2" d="M14.82,20A3.41,3.41,0,0,1,9.4,20h5.41m1.58-1H7.82a4.42,4.42,0,0,0,8.57,0Z"/></svg>