<svg id="Layer_1" data-name="Layer 1" xmlns="http://www.w3.org/2000/svg" viewBox="0 0 24 24"><defs><style>.cls-1{fill:#004e98;}</style></defs><title>attach</title><path class="cls-1" d="M18.51,12.4l0,0,0,0,0,0h0a4.85,4.85,0,0,0-6.91-6.81l-.08.09L5.22,12a.55.55,0,0,0,0,.78h0a.55.55,0,0,0,.78,0L12.4,6.36l.06-.07A3.75,3.75,0,0,1,18.29,7a3.79,3.79,0,0,1-.55,4.65h0L11,18.33a2.66,2.66,0,0,1-3.77-3.77h0l5.09-5.12,1.56-1.5a1.52,1.52,0,0,1,2,.09A1.48,1.48,0,0,1,16,10l-1.56,1.58h0L10,16.1a.54.54,0,0,0,0,.77h0a.54.54,0,0,0,.77,0l6-6a2.59,2.59,0,0,0-3.63-3.69L6.47,13.76a3.77,3.77,0,0,0,5.21,5.45Z"/></svg>