<svg id="Layer_1" data-name="Layer 1" xmlns="http://www.w3.org/2000/svg" viewBox="0 0 24 24"><defs><style>.cls-1{fill:none;stroke:#004e98;stroke-linecap:round;stroke-miterlimit:10;}.cls-2{fill:#029cde;}.cls-3{fill:#004e98;}</style></defs><title>book</title><polyline class="cls-1" points="20.5 2.75 21.5 3.75 21.5 16.75 12.5 19.75 3.5 16.75 3.5 3.75 5 2.75"/><path class="cls-2" d="M6,4c4,.24,5.78,1.89,5.79,1.9l.7.69.71-.68S15,4.27,19,4V14.25L12.86,16h-.72L6,14.25V4M20,3c-5.28,0-7.5,2.22-7.5,2.22S10.28,3,5,3V15l7,2h1l7-2V3Z"/><rect class="cls-3" x="12" y="5" width="1" height="12"/></svg>