<svg id="Layer_1" data-name="Layer 1" xmlns="http://www.w3.org/2000/svg" viewBox="0 0 24 24"><defs><style>.cls-1{fill:#029cde;}.cls-2{fill:#004e98;}</style></defs><title>bookmark</title><path class="cls-1" d="M19,2c-1.3,0-2.07.32-2.48,1C16.52,3,18,3,19,3a2.1,2.1,0,0,1,2,1.3V11H17V7H16v5h6V4.2C22,2.93,20.68,2,19,2Z"/><path class="cls-2" d="M16.31,3A9.32,9.32,0,0,0,16,6V19.9l-4.85-4.16-.65-.56-.65.56L5,19.9V4.71C5,3.67,5.66,3,6.11,3h10.2m2.2-1H6.11A2.5,2.5,0,0,0,4,4.71V22.08l6.5-5.58L17,22.08V6.46c0-2.25-.15-4,1.87-4.44L18.5,2Z"/></svg>