<svg id="Layer_1" data-name="Layer 1" xmlns="http://www.w3.org/2000/svg" viewBox="0 0 24 24"><defs><style>.cls-1{fill:#004e98;}.cls-2{fill:#029cde;}.cls-3{fill:none;stroke:#029cde;stroke-miterlimit:10;}</style></defs><title>calendar</title><path class="cls-1" d="M18.5,2a.5.5,0,0,1,.5.5V4h3V21H3V4H6V2.5a.5.5,0,0,1,1,0V4H18V2.5a.5.5,0,0,1,.5-.5m0-1A1.5,1.5,0,0,0,17,2.5V3H8V2.5a1.5,1.5,0,0,0-3,0V3H2V22H23V3H20V2.5A1.5,1.5,0,0,0,18.5,1Z"/><path class="cls-2" d="M19,7V18H6V7H19m1-1H5V19H20V6Z"/><line class="cls-3" x1="15.5" y1="7" x2="15.5" y2="19"/><line class="cls-3" x1="9.5" y1="7" x2="9.58" y2="18.5"/><line class="cls-3" x1="19.5" y1="10.5" x2="6" y2="10.5"/><line class="cls-3" x1="19" y1="14.5" x2="5.5" y2="14.42"/></svg>