<svg id="Layer_1" data-name="Layer 1" xmlns="http://www.w3.org/2000/svg" viewBox="0 0 24 24"><defs><style>.cls-1{fill:#029cde;}.cls-2{fill:#004e98;}</style></defs><title>cancel</title><path class="cls-1" d="M12.1,3.17A9,9,0,1,1,3.78,8.72,9,9,0,0,1,12.1,3.17m0-1a10,10,0,1,0,3.85.77,10,10,0,0,0-3.85-.77Z"/><path class="cls-2" d="M17.07,15.09a.71.71,0,0,1,0,1L16,17.18a.71.71,0,0,1-1,0l-2.81-2.81-3,3a.71.71,0,0,1-1,0L7.13,16.25a.71.71,0,0,1,0-1l3-3L7.28,9.48a.71.71,0,0,1,0-1L8.37,7.39a.71.71,0,0,1,1,0l2.81,2.81L15,7.39a.71.71,0,0,1,1,0l1.09,1.09a.71.71,0,0,1,0,1l-2.81,2.81Z"/></svg>