<svg id="Layer_1" data-name="Layer 1" xmlns="http://www.w3.org/2000/svg" viewBox="0 0 24 24"><defs><style>.cls-1{fill:#029cde;}.cls-2{fill:#004e98;}</style></defs><title>checkmark</title><path class="cls-1" d="M12.13,3.08h0A9,9,0,1,1,3.78,8.65a9,9,0,0,1,8.35-5.57m0-1A10,10,0,1,0,16,2.86a10,10,0,0,0-3.85-.77Z"/><path class="cls-2" d="M16.56,7.41l-5.45,7.18L7.37,11.75a.66.66,0,0,0-.92.13l-.61.81a.66.66,0,0,0,.13.92l3.74,2.84,1.85,1.41L13,16l5.45-7.18a.66.66,0,0,0-.13-.92l-.81-.61A.66.66,0,0,0,16.56,7.41Z"/></svg>