<svg id="Layer_1" data-name="Layer 1" xmlns="http://www.w3.org/2000/svg" viewBox="0 0 24 24"><defs><style>.cls-1{fill:none;stroke:#029cde;stroke-miterlimit:10;}.cls-2{fill:#004e98;}</style></defs><title>cloudDownload</title><path class="cls-1" d="M14.5,12.5h-4v4H8.08a.24.24,0,0,0-.17.41l4.23,4.23a.5.5,0,0,0,.71,0l4.23-4.23a.24.24,0,0,0-.17-.41H14.5v-4Z"/><path class="cls-2" d="M5.28,16.62A4.24,4.24,0,0,1,4.17,8.28a7.3,7.3,0,0,1,13.57-2.6A5.48,5.48,0,0,1,23,11.15a4.89,4.89,0,0,1-3.56,5,.59.59,0,0,1-.31-1.11,3.73,3.73,0,0,0,2.71-3.91,4.32,4.32,0,0,0-4.32-4.32h-.47l-.17-.33A6.15,6.15,0,0,0,5.27,8.81l0,.45-.45.07a3.09,3.09,0,0,0,.49,6.14s.52.14.54.6A.52.52,0,0,1,5.28,16.62Z"/></svg>