<svg id="Layer_1" data-name="Layer 1" xmlns="http://www.w3.org/2000/svg" viewBox="0 0 24 24"><defs><style>.cls-1{fill:#004e98;}</style></defs><title>cloud</title><path class="cls-1" d="M11.35,5.26A6.09,6.09,0,0,1,16.8,8.61l.29.56.63,0h.15A4.18,4.18,0,0,1,22,13.32C22,15.48,20.39,17,18,17H5c-1.49,0-3-.74-3-2.39a2.86,2.86,0,0,1,2.42-2.83l.77-.12.06-.78a6.15,6.15,0,0,1,6.09-5.61m0-1a7.11,7.11,0,0,0-7.09,6.53A3.87,3.87,0,0,0,1,14.61C1,16.75,2.86,18,5,18H18c2.82,0,5-1.85,5-4.68a5.18,5.18,0,0,0-5.18-5.18h-.13a7.11,7.11,0,0,0-6.34-3.9Z"/></svg>