<svg id="Layer_1" data-name="Layer 1" xmlns="http://www.w3.org/2000/svg" viewBox="0 0 24 24"><defs><style>.cls-1{fill:#004e98;}</style></defs><title>cognitive</title><path class="cls-1" d="M14.21,3a2.94,2.94,0,0,0-2.47,1.2A2.94,2.94,0,0,0,9.27,3,2.8,2.8,0,0,0,6.6,4.63a3.81,3.81,0,0,0-.29.91,3.25,3.25,0,0,0-1.71.8A4.41,4.41,0,0,0,3.35,9.62a4.59,4.59,0,0,0-.85,3A3.74,3.74,0,0,0,3.57,15a5,5,0,0,0,.8,3.35A3.91,3.91,0,0,0,7,19.81a2.86,2.86,0,0,0,2.56,1.63,2.79,2.79,0,0,0,2.21-1,2.79,2.79,0,0,0,2.21,1,2.86,2.86,0,0,0,2.56-1.63h0a3.91,3.91,0,0,0,2.61-1.49,5,5,0,0,0,.8-3.34h0A3.74,3.74,0,0,0,21,12.59a4.59,4.59,0,0,0-.85-3h0a4.41,4.41,0,0,0-1.25-3.27,3.25,3.25,0,0,0-1.71-.8h0a3.81,3.81,0,0,0-.29-.91A2.8,2.8,0,0,0,14.21,3ZM12.42,7.74l0-1.57v0s0-.11,0-.24a1.78,1.78,0,0,1,1.8-1.57,1.72,1.72,0,0,1,1.71,1.84v.72h0l.71-.06h.06A2,2,0,0,1,18,7.33a3.34,3.34,0,0,1,.81,2.52v.25h0l.16.19a3.18,3.18,0,0,1,.69,2.21,2.49,2.49,0,0,1-.29,1,3.86,3.86,0,0,0-3.27-1.57,4.13,4.13,0,0,0-.53,0,.67.67,0,0,0-.59.62.66.66,0,0,0,.66.7h.09a3,3,0,0,1,.36,0,2.36,2.36,0,0,1,2.47,1.62,3.86,3.86,0,0,1-.52,2.67,2.79,2.79,0,0,1-2.07,1l-.42,0h0l-.13.4a1.68,1.68,0,0,1-1.48,1.13,1.61,1.61,0,0,1-1.45-.93h0l-.09-8.86A1.67,1.67,0,0,1,12.93,9a2.13,2.13,0,0,1,1.31-.37,2.87,2.87,0,0,1,.5,0h.12A.66.66,0,0,0,15,7.36a4.21,4.21,0,0,0-.76-.06,3.62,3.62,0,0,0-1.82.44ZM7.56,6.88V6.16A1.72,1.72,0,0,1,9.27,4.32a1.78,1.78,0,0,1,1.8,1.57c0,.13,0,.21,0,.24v0l0,1.57A3.62,3.62,0,0,0,9.25,7.3a4.21,4.21,0,0,0-.76.06.66.66,0,0,0,.13,1.3h.12a2.87,2.87,0,0,1,.5,0A2.13,2.13,0,0,1,10.56,9a1.67,1.67,0,0,1,.52,1.35L11,19.2a1.61,1.61,0,0,1-1.45.93A1.68,1.68,0,0,1,8.05,19l-.13-.4-.42,0a2.79,2.79,0,0,1-2.07-1,3.86,3.86,0,0,1-.52-2.67,2.36,2.36,0,0,1,2.47-1.62,3,3,0,0,1,.36,0h.09A.66.66,0,0,0,7.91,12a4.11,4.11,0,0,0-.55,0A3.86,3.86,0,0,0,4.1,13.5a2.49,2.49,0,0,1-.29-1,3.18,3.18,0,0,1,.69-2.21l.16-.19V9.85a3.34,3.34,0,0,1,.81-2.52,2,2,0,0,1,1.31-.51h.06l.72.07Z"/></svg>