<svg id="Layer_1" data-name="Layer 1" xmlns="http://www.w3.org/2000/svg" viewBox="0 0 24 24"><defs><style>.cls-1{fill:#004e98;}.cls-2{fill:#029cde;}</style></defs><title>comment</title><path class="cls-1" d="M20.72,4a.26.26,0,0,1,.28.23V16.77a.26.26,0,0,1-.28.23H8.31l-.24.15L3,20.26v-16A.26.26,0,0,1,3.28,4H20.72m0-1H3.28A1.25,1.25,0,0,0,2,4.23V22.05L8.59,18H20.72A1.25,1.25,0,0,0,22,16.77V4.23A1.25,1.25,0,0,0,20.72,3Z"/><circle class="cls-2" cx="6.39" cy="10.61" r="1.39"/><circle class="cls-2" cx="12.04" cy="10.61" r="1.39"/><circle class="cls-2" cx="17.61" cy="10.61" r="1.39"/></svg>