<svg id="Layer_1" data-name="Layer 1" xmlns="http://www.w3.org/2000/svg" viewBox="0 0 24 24"><defs><style>.cls-1{fill:#004e98;}.cls-2{fill:none;stroke:#029cde;stroke-linecap:round;stroke-miterlimit:10;}</style></defs><title>export</title><path class="cls-1" d="M21,3v8.64L19.09,9.73,18.38,9l-.71.71-6.46,6.46L7.81,12.78l6.46-6.46L15,5.62l-.71-.71L12.36,3H21m.12-1H11a.42.42,0,0,0-.3.72l2.9,2.9L6.4,12.78l4.82,4.82,7.16-7.16,2.9,2.9a.41.41,0,0,0,.29.12A.42.42,0,0,0,22,13V2.88A.88.88,0,0,0,21.12,2Z"/><polyline class="cls-2" points="17.5 16.5 17.5 22.5 1.5 22.5 1.5 6.5 7.5 6.5"/></svg>