<svg id="Layer_1" data-name="Layer 1" xmlns="http://www.w3.org/2000/svg" viewBox="0 0 24 24"><defs><style>.cls-1{fill:#029cde;}.cls-2{fill:#004e98;}</style></defs><title>favorite</title><path class="cls-1" d="M12,16.06l3.15,1.1.56,3.9-3.2-1.92L12,18.83l-.51.31-3.2,1.92.55-3.87L12,16.06M12,15,7.93,16.46,7.86,17,7,23l5-3,5,3-.9-6.29,0-.3L12,15Z"/><path class="cls-2" d="M12,2.41l3.29,3.29.15.15.19.08,3.91,1.56-2.4,4-.14.24v4.89l-4.68-1.56L12,14.95l-.32.11L7,16.61,7,12v-.28l-.14-.24-2.4-4L8.37,5.93l.19-.08.15-.15L12,2.41M12,1,8,5,3,7l3,5,0,6,6-2,6,2V12l3-5L16,5,12,1Z"/></svg>