<svg id="Layer_1" data-name="Layer 1" xmlns="http://www.w3.org/2000/svg" viewBox="0 0 24 24"><defs><style>.cls-1{fill:#004e98;}.cls-2{fill:none;stroke:#029cde;stroke-linecap:round;stroke-miterlimit:10;stroke-width:1.2px;}</style></defs><title>flag</title><path class="cls-1" d="M9.59,2.49a8.51,8.51,0,0,1,1.67.16l2.06.41a10.52,10.52,0,0,0,2.06.2,10.52,10.52,0,0,0,2.06-.2L20,2.56v9.21l-3,.59a8.49,8.49,0,0,1-3.33,0l-2.06-.41a10.49,10.49,0,0,0-3.78-.06L4,12.53V3.31l4.2-.7a8.52,8.52,0,0,1,1.4-.12M21,1.34l-3.76.75a9.49,9.49,0,0,1-1.86.18,9.49,9.49,0,0,1-1.86-.18l-2.06-.41A9.49,9.49,0,0,0,8,1.62L3,2.46V13.71l5-.84a9.49,9.49,0,0,1,3.42.06l2.06.41a9.49,9.49,0,0,0,3.72,0L21,12.59V1.34Z"/><line class="cls-2" x1="3.5" y1="1.5" x2="3.5" y2="22.5"/></svg>