<svg id="Layer_1" data-name="Layer 1" xmlns="http://www.w3.org/2000/svg" viewBox="0 0 24 24"><defs><style>.cls-1{fill:none;stroke:#004e98;stroke-miterlimit:10;}</style></defs><title>hammer</title><path class="cls-1" d="M20,11.06,19.89,11,18.21,9.12,18.36,9a.47.47,0,0,0,0-.66L16.73,6.49a.47.47,0,0,0-.67,0l-.14.13-1.5-1.66A.31.31,0,0,0,14,4.87l-.86.78.77-.7-.57-.63.58-.53-.66-.73a.69.69,0,0,0-1-.09L9.78,5.23a.69.69,0,0,0,0,1l.66.73L11,6.42l.57.63-.37.34a.31.31,0,0,0,0,.44L12.75,9.5,3.59,17.92a.47.47,0,0,0,0,.66l1.66,1.83a.47.47,0,0,0,.67,0L15,12l1,1.06a.33.33,0,0,0,.35.1c1.16-.37,2.69.34,3.88,1.41.19.18.46.11.5-.12A5.48,5.48,0,0,0,20,11.06Z"/></svg>