<svg id="Layer_1" data-name="Layer 1" xmlns="http://www.w3.org/2000/svg" viewBox="0 0 24 24"><defs><style>.cls-1{fill:#004e98;}</style></defs><title>hand</title><path class="cls-1" d="M11.63,1.63a1,1,0,0,1,1,1v7.5a.5.5,0,0,0,1,0V3.63a1,1,0,0,1,2,0v6.5a.5.5,0,0,0,1,0V5.63a1,1,0,0,1,2,0V18.3a3.33,3.33,0,0,1-3.33,3.33H9.63a3.25,3.25,0,0,1-2.91-1.8l-3.52-7a1.3,1.3,0,0,1,2.08-1.5l1.83,1.83a.29.29,0,0,0,.21.09.3.3,0,0,0,.3-.3V3.63a1,1,0,0,1,2,0v6.5a.5.5,0,0,0,1,0V2.63a1,1,0,0,1,1-1m0-1A2,2,0,0,0,9.74,2,2,2,0,0,0,6.63,3.63v7.59L6,10.58a2.29,2.29,0,0,0-1.63-.67,2.3,2.3,0,0,0-2.06,3.33l3.52,7a4.23,4.23,0,0,0,3.8,2.35H15.3a4.33,4.33,0,0,0,4.33-4.33V5.63a2,2,0,0,0-3-1.73V3.63A2,2,0,0,0,13.51,2,2,2,0,0,0,11.63.63Z"/></svg>