<svg id="Layer_1" data-name="Layer 1" xmlns="http://www.w3.org/2000/svg" viewBox="0 0 24 24"><defs><style>.cls-1{fill:#004e98;}</style></defs><title>heart</title><path class="cls-1" d="M17.09,4.39a3.79,3.79,0,0,1,2.7,1.12l.09.09a3.82,3.82,0,0,1,0,5.4l-1.77,1.77L12,18.84,5.84,12.65,4.11,10.93A3.8,3.8,0,0,1,9.48,5.56l1.72,1.72.71.71.71-.71L14.39,5.5a3.79,3.79,0,0,1,2.7-1.12m0-1A4.8,4.8,0,0,0,13.69,4.8L11.91,6.57,10.19,4.85a4.8,4.8,0,0,0-6.78,6.78l1.72,1.72,6.9,6.9,6.78-6.78,1.77-1.77a4.82,4.82,0,0,0,0-6.81L20.5,4.8a4.8,4.8,0,0,0-3.41-1.41Z"/></svg>