<svg id="Layer_1" data-name="Layer 1" xmlns="http://www.w3.org/2000/svg" viewBox="0 0 24 24"><defs><style>.cls-1{fill:none;}.cls-2{fill:#004e98;}.cls-3{fill:#029cde;}</style></defs><title>link</title><path class="cls-1" d="M16.42,10.15l1.41-1.41a3,3,0,0,0,0-4.22l-.35-.35a3,3,0,0,0-4.22,0L9,8.41a3,3,0,0,0-.37,3.76l1.92-1.92A4.23,4.23,0,0,1,16.42,10.15Z"/><path class="cls-1" d="M11.48,11.18,9.54,13.12a3.05,3.05,0,0,0,4-.14l1.91-1.91a2.91,2.91,0,0,0-4,.11Z"/><path class="cls-1" d="M11.48,15.15A4.24,4.24,0,0,1,8.62,14L7.31,15.35a2.94,2.94,0,0,0,0,4.15l.34.34a2.93,2.93,0,0,0,4.15,0L16,15.67a2.93,2.93,0,0,0,.4-3.63L14.51,13.9A4.26,4.26,0,0,1,11.48,15.15Z"/><path class="cls-2" d="M18.75,3.6l-.35-.35a4.29,4.29,0,0,0-6.06,0L8.1,7.49a4.28,4.28,0,0,0-.37,5.6,4.22,4.22,0,0,0,.37.46l.35.35.17.14a4.25,4.25,0,0,0,5.89-.14l1.25-1.25a2.34,2.34,0,0,0-.88-1L13.59,13a3.05,3.05,0,0,1-4,.14c-.06,0-.12-.09-.17-.14L9,12.63A3,3,0,0,1,9,8.41l4.24-4.24a3,3,0,0,1,4.22,0l.35.35a3,3,0,0,1,0,4.22l-.7.7a5.12,5.12,0,0,1,.92.92l.7-.7A4.29,4.29,0,0,0,18.75,3.6Z"/><path class="cls-1" d="M8.58,14.8a4.14,4.14,0,0,1-.44-.28l-.83.83a2.94,2.94,0,0,0,0,4.15l.34.34a2.93,2.93,0,0,0,4.15,0L16,15.67a3,3,0,0,0,0-4.15l-.34-.34-.13-.11a2.91,2.91,0,0,0-4,.11L10,12.62a2.76,2.76,0,0,0,.36.2C11.55,13.35,8.58,14.8,8.58,14.8Z"/><path class="cls-3" d="M17.31,11.1a4.18,4.18,0,0,0-.41-.5l-.34-.34-.13-.11a4.23,4.23,0,0,0-5.86.11L9.13,11.69a3,3,0,0,0,.91.93l1.45-1.45a2.91,2.91,0,0,1,4-.11l.13.11.34.34a3,3,0,0,1,0,4.15L11.8,19.84a2.93,2.93,0,0,1-4.15,0l-.34-.34a2.94,2.94,0,0,1,0-4.15l.83-.83a3.13,3.13,0,0,1-.9-.94l-.85.85a4.24,4.24,0,0,0,0,6l.34.34a4.24,4.24,0,0,0,6,0l4.18-4.18A4.23,4.23,0,0,0,17.31,11.1Z"/></svg>