<svg id="Layer_1" data-name="Layer 1" xmlns="http://www.w3.org/2000/svg" viewBox="0 0 24 24"><defs><style>.cls-1{fill:#004e98;}.cls-2{fill:#029cde;}</style></defs><title>location</title><path class="cls-1" d="M12.24,3.13A6.57,6.57,0,0,1,18.8,9.69c0,2.78-4.22,8.16-6.56,10.82-2.34-2.66-6.56-8-6.56-10.82a6.57,6.57,0,0,1,6.56-6.56m0-1A7.56,7.56,0,0,0,4.68,9.69C4.68,13.86,12.24,22,12.24,22S19.8,13.86,19.8,9.69a7.56,7.56,0,0,0-7.56-7.56Z"/><path class="cls-2" d="M12.24,7A2.31,2.31,0,1,1,9.93,9.31,2.31,2.31,0,0,1,12.24,7m0-1a3.31,3.31,0,1,0,3.31,3.31A3.31,3.31,0,0,0,12.24,6Z"/></svg>