<svg id="Layer_1" data-name="Layer 1" xmlns="http://www.w3.org/2000/svg" viewBox="0 0 24 24"><defs><style>.cls-1,.cls-2{fill:none;}.cls-1{stroke:#029cde;stroke-miterlimit:10;}.cls-3{fill:#004e98;}</style></defs><title>lock</title><path class="cls-1" d="M14.3,13.37a2.51,2.51,0,1,0-3.68,2.2l-.33,3.31h3l-.36-3.3A2.5,2.5,0,0,0,14.3,13.37Z"/><path class="cls-2" d="M11.57,1.37A3.61,3.61,0,0,0,8,5V7.81h7.22V5A3.61,3.61,0,0,0,11.57,1.37Z"/><path class="cls-3" d="M18.25,9.17v12h-13v-12h13m1-1h-15v14h15v-14Z"/><path class="cls-3" d="M11.75,2.17a3.5,3.5,0,0,1,3.5,3.5v2.5h-7V5.67a3.5,3.5,0,0,1,3.5-3.5m0-1a4.5,4.5,0,0,0-4.5,4.5v3.5h9V5.67a4.5,4.5,0,0,0-4.5-4.5Z"/></svg>