<svg id="Layer_1" data-name="Layer 1" xmlns="http://www.w3.org/2000/svg" viewBox="0 0 24 24"><defs><style>.cls-1{fill:none;stroke:#029cde;stroke-linecap:round;stroke-miterlimit:10;}.cls-2{fill:#004e98;}</style></defs><title>network</title><line class="cls-1" x1="11.43" y1="13" x2="11.43" y2="17.38"/><line class="cls-1" x1="9.1" y1="11.57" x2="6" y2="12.89"/><line class="cls-1" x1="6.76" y1="6.4" x2="9.54" y2="8.89"/><line class="cls-1" x1="15.67" y1="6.36" x2="13.18" y2="8.68"/><line class="cls-1" x1="18.93" y1="13.77" x2="13.67" y2="11.54"/><path class="cls-2" d="M11.43,8.86a1.73,1.73,0,1,1-1.81,1.73,1.77,1.77,0,0,1,1.81-1.73m0-1a2.73,2.73,0,1,0,2.81,2.73,2.77,2.77,0,0,0-2.81-2.73Z"/><path class="cls-2" d="M17.43,3.38a1.4,1.4,0,0,1,1.43,1.36,1.43,1.43,0,0,1-2.86,0,1.4,1.4,0,0,1,1.43-1.36m0-1A2.39,2.39,0,0,0,15,4.73a2.43,2.43,0,0,0,4.86,0,2.39,2.39,0,0,0-2.43-2.36Z"/><path class="cls-2" d="M20.54,13.74a.79.79,0,0,1,.3.06.71.71,0,0,1,.4.39.65.65,0,0,1,0,.5.75.75,0,0,1-.69.43.79.79,0,0,1-.3-.06.71.71,0,0,1-.4-.39.65.65,0,0,1,0-.5.75.75,0,0,1,.69-.43m0-1a1.75,1.75,0,0,0-1.61,1A1.68,1.68,0,0,0,19.85,16a1.79,1.79,0,0,0,.69.14,1.75,1.75,0,0,0,1.61-1,1.68,1.68,0,0,0-.92-2.23,1.79,1.79,0,0,0-.69-.14Z"/><path class="cls-2" d="M11.43,18a1.17,1.17,0,1,1-1.24,1.17A1.21,1.21,0,0,1,11.43,18m0-1a2.17,2.17,0,1,0,2.24,2.17A2.21,2.21,0,0,0,11.43,17Z"/><path class="cls-2" d="M4.05,12.36a1.36,1.36,0,1,1,0,2.71,1.36,1.36,0,1,1,0-2.71m0-1a2.35,2.35,0,1,0,0,4.71,2.35,2.35,0,1,0,0-4.71Z"/><path class="cls-2" d="M5.76,4.91a.59.59,0,1,1-.64.59.61.61,0,0,1,.64-.59m0-1A1.59,1.59,0,1,0,7.4,5.5,1.61,1.61,0,0,0,5.76,3.91Z"/></svg>