<svg id="Layer_1" data-name="Layer 1" xmlns="http://www.w3.org/2000/svg" viewBox="0 0 24 24"><defs><style>.cls-1{fill:#029cde;}.cls-2{fill:#004e98;}</style></defs><title>noAlarm</title><path class="cls-1" d="M14.89,20a3.57,3.57,0,0,1-5.74,0h5.74m1.57-1H7.58a4.58,4.58,0,0,0,8.87,0Z"/><path class="cls-2" d="M5.67,8.7,14,17H3V15.71A8.31,8.31,0,0,1,5,13l.29-.29v-.41A15.77,15.77,0,0,1,5.67,8.7M5.2,6.82a15.11,15.11,0,0,0-.91,5.43S2,14.55,2,15.7V18H16.38L5.2,6.82Z"/><path class="cls-2" d="M11.66,2.91c2.63,0,7,1.21,7,9.34v.41L19,13a8.32,8.32,0,0,1,2,2.74V17H19.36L7,4.67a6.25,6.25,0,0,1,4.63-1.76m0-1a7.07,7.07,0,0,0-6,2.81L18.95,18H22V15.7c0-1.15-2.3-3.45-2.3-3.45,0-5.71-2.33-10.34-8-10.34Z"/></svg>