<svg id="Layer_1" data-name="Layer 1" xmlns="http://www.w3.org/2000/svg" viewBox="0 0 24 24"><defs><style>.cls-1{fill:#004e98;}</style></defs><title>noCloud</title><path class="cls-1" d="M6,8l7.34,9H4.83a2.88,2.88,0,0,1-.41-5.71l.77-.12.06-.78A6,6,0,0,1,6,8M5.89,6.36A7.07,7.07,0,0,0,4.26,10.3,3.88,3.88,0,0,0,4.88,18H15.42L5.89,6.36Z"/><path class="cls-1" d="M11.35,4.35A6.09,6.09,0,0,1,16.8,7.7l.29.56.63,0h.15A4.18,4.18,0,0,1,22,12.41c0,1.85-.91,3.92-2.62,4.48L9.34,4.7a6,6,0,0,1,2-.35m0-1a7.05,7.05,0,0,0-3.6,1L19,18c2.53-.34,4-3,4-5.59a5.18,5.18,0,0,0-5.18-5.18h-.13a7.11,7.11,0,0,0-6.34-3.9Z"/></svg>