<svg id="Layer_1" data-name="Layer 1" xmlns="http://www.w3.org/2000/svg" viewBox="0 0 24 24"><defs><style>.cls-1{fill:#004e98;}</style></defs><title>novision</title><path class="cls-1" d="M5.21,8.51l3.61,3.61a3.39,3.39,0,0,0,2.11,2.11l2.83,2.83a9.06,9.06,0,0,1-1.72.18A12.85,12.85,0,0,1,2.4,12.16,19,19,0,0,1,5.21,8.51m0-1.37a19,19,0,0,0-4.06,5A13.71,13.71,0,0,0,12,18.25a11.83,11.83,0,0,0,3.66-.66l-4.23-4.23A2.4,2.4,0,0,1,9.71,11.6L5.26,7.15Z"/><path class="cls-1" d="M12,6c5.14,0,7.34,2.52,9.65,6.16a11.86,11.86,0,0,1-3.45,3.15l-3-3A3.35,3.35,0,0,0,15.45,11,3.41,3.41,0,0,0,12,7.61a3.35,3.35,0,0,0-1.25.24L9.24,6.31A11.94,11.94,0,0,1,12,6m0-1a11.57,11.57,0,0,0-4.65.87l3.22,3.22A2.4,2.4,0,0,1,14,12.45l4.11,4.11a12.91,12.91,0,0,0,4.8-4.39C20.48,8.31,18.07,5,12,5Z"/></svg>