<svg id="Layer_1" data-name="Layer 1" xmlns="http://www.w3.org/2000/svg" viewBox="0 0 24 24"><defs><style>.cls-1{fill:#004e98;}.cls-2{fill:#029cde;}</style></defs><title>picture</title><path class="cls-1" d="M21.25,4a.75.75,0,0,1,.75.75V20H3V6H16l0-1V4.76A.79.79,0,0,1,16.8,4h4.44m0-1H16.8A1.79,1.79,0,0,0,15,4.71V5H2V21H23V4.75A1.75,1.75,0,0,0,21.25,3Z"/><path class="cls-2" d="M12.5,10A3.5,3.5,0,1,1,9,13.5,3.5,3.5,0,0,1,12.5,10m0-1A4.5,4.5,0,1,0,17,13.5,4.5,4.5,0,0,0,12.5,9Z"/><circle class="cls-2" cx="18" cy="9" r="1"/></svg>