<svg id="Layer_1" data-name="Layer 1" xmlns="http://www.w3.org/2000/svg" viewBox="0 0 24 24"><defs><style>.cls-1{fill:#029cde;}.cls-2{fill:none;stroke:#004e98;stroke-miterlimit:10;}</style></defs><title>pin</title><path class="cls-1" d="M13.36,14l-1.13,7.53L11.12,14h2.24m0-1H11.12a1,1,0,0,0-1,1.15l1.11,7.53a1,1,0,0,0,1,.85h0a1,1,0,0,0,1-.85l1.13-7.53a1,1,0,0,0-1-1.15Z"/><path class="cls-2" d="M14.5,9.14V4.5h0l1.7-3H7.63l1.7,3H9.5V9.14a4.44,4.44,0,0,0-2,3.14V13.5h9V12.28C16.42,10.7,14.5,9.14,14.5,9.14Z"/></svg>