<svg id="Layer_1" data-name="Layer 1" xmlns="http://www.w3.org/2000/svg" viewBox="0 0 24 24"><defs><style>.cls-1{fill:#029cde;}.cls-2{fill:#004e98;}</style></defs><title>print</title><path class="cls-1" d="M18,3V6H6V3H18m1-1H5V7H19V2Z"/><path class="cls-2" d="M20.08,7A1,1,0,0,1,21,8v7a1,1,0,0,1-.92,1H19V14H5v2H3.92A1,1,0,0,1,3,15V8a1,1,0,0,1,.92-1H20.08m0-1H3.92A2,2,0,0,0,2,8v7a2,2,0,0,0,1.92,2H6V15H18v2h2.08A2,2,0,0,0,22,15V8a2,2,0,0,0-1.92-2Z"/><path class="cls-1" d="M18,15v6H6V15H18m1-1H5v8H19V14Z"/></svg>