<svg id="Layer_1" data-name="Layer 1" xmlns="http://www.w3.org/2000/svg" viewBox="0 0 24 24"><defs><style>.cls-1{fill:#004e98;}.cls-2{fill:none;stroke:#029cde;stroke-linecap:round;stroke-miterlimit:10;}</style></defs><title>saveHdd</title><path class="cls-1" d="M13,4V9h2.34L11.5,12.84,7.66,9H10V4h3m1-1H9V8H6a.31.31,0,0,0-.22.54L11,13.78a.66.66,0,0,0,.93,0l5.25-5.25A.31.31,0,0,0,17,8H14V3Z"/><path class="cls-2" d="M6.5,11.5H2.11a.61.61,0,0,0-.61.61v6.78a.61.61,0,0,0,.61.61H20.89a.61.61,0,0,0,.61-.61V12.11a.61.61,0,0,0-.61-.61H16.25M4.49,16.57a1,1,0,1,1,1-1A1,1,0,0,1,4.49,16.57Z"/></svg>