<svg id="Layer_1" data-name="Layer 1" xmlns="http://www.w3.org/2000/svg" viewBox="0 0 24 24"><defs><style>.cls-1{fill:#004e98;}.cls-2{fill:none;stroke:#029cde;stroke-linecap:round;stroke-miterlimit:10;}</style></defs><title>save1</title><path class="cls-1" d="M16,7.28a.76.76,0,0,1-.8.72H8.8A.76.76,0,0,1,8,7.28V3h5l0,4,2,0V3h1Z"/><path class="cls-1" d="M14,13v5h2.34L12.5,21.84,8.66,18H11V13h3m1-1H10v5H7a.31.31,0,0,0-.22.53l5.28,5.28a.63.63,0,0,0,.89,0l5.28-5.28A.31.31,0,0,0,18,17H15V12Z"/><path class="cls-2" d="M16.28,15.5H19.5V5.89L16.39,2.5H6.61A1.11,1.11,0,0,0,5.5,3.6V15.5H9"/></svg>