<svg id="Layer_1" data-name="Layer 1" xmlns="http://www.w3.org/2000/svg" viewBox="0 0 24 24"><defs><style>.cls-1,.cls-2{fill:none;stroke-miterlimit:10;}.cls-1{stroke:#004e98;}.cls-2{stroke:#029cde;}</style></defs><title>settings</title><path class="cls-1" d="M22.5,12.87V10l-3.08-.26a7.09,7.09,0,0,0-.81-2l2-2.38-2-2-2.35,2a7.08,7.08,0,0,0-2.05-.85L13.87,1.5H11l-.26,3.08a7.09,7.09,0,0,0-2,.83l-2.35-2-2,2,2,2.38a7.09,7.09,0,0,0-.82,2L2.5,10v2.84l3.06.29a7.09,7.09,0,0,0,.85,2.05l-2,2.35,2,2,2.38-2a7.09,7.09,0,0,0,2,.82L11,21.5h2.84l.29-3.06a7.08,7.08,0,0,0,2-.83l2.38,2,2-2-2-2.35a7.08,7.08,0,0,0,.85-2.05Z"/><circle class="cls-2" cx="12.4" cy="11.62" r="3.99"/></svg>