<svg id="Layer_1" data-name="Layer 1" xmlns="http://www.w3.org/2000/svg" viewBox="0 0 24 24"><defs><style>.cls-1,.cls-2{fill:none;stroke-miterlimit:10;}.cls-1{stroke:#004e98;}.cls-2{stroke:#029cde;stroke-linecap:round;}</style></defs><title>stopwatch</title><path class="cls-1" d="M19,11.76H19a7.44,7.44,0,0,0-5.68-6.1V4.51h.84V3.88a1.23,1.23,0,0,0-1.23-1.23H10.33A1.23,1.23,0,0,0,9.1,3.88v.64h.84V5.66a7.44,7.44,0,1,0,9,8.4H19a.8.8,0,0,0,.8-.8v-.69A.8.8,0,0,0,19,11.76Z"/><polyline class="cls-2" points="12 8.33 12 13.5 9.61 15.89"/></svg>