<svg id="Layer_1" data-name="Layer 1" xmlns="http://www.w3.org/2000/svg" viewBox="0 0 24 24"><defs><style>.cls-1{fill:#029cde;}.cls-2{fill:#004e98;}</style></defs><title>thumbUp</title><path class="cls-1" d="M21,11V21H17V11h4m1-1H16V22h6V10Z"/><path class="cls-2" d="M13.69,3.24,16,10.16V21H5.91a.68.68,0,0,1-.67-.56l-1.41-8.1a1.18,1.18,0,0,1,.25-1A1,1,0,0,1,4.85,11H13V5.43a3.6,3.6,0,0,1,.69-2.19M14.33,2h-.05C12.47,2,12,4.29,12,5.43V10H4.85a2.1,2.1,0,0,0-2,2.5l1.41,8.1A1.68,1.68,0,0,0,5.91,22H17V10L14.33,2Z"/></svg>