<svg id="Layer_1" data-name="Layer 1" xmlns="http://www.w3.org/2000/svg" viewBox="0 0 24 24"><defs><style>.cls-1{fill:#029cde;}.cls-2{fill:#004e98;}</style></defs><title>thumbDown</title><path class="cls-1" d="M20,3V13H16V3h4m1-1H15V14h6V2Z"/><path class="cls-2" d="M15,3V13.84l-2.31,6.92A3.6,3.6,0,0,1,12,18.57V13H3.85a1,1,0,0,1-.76-.36,1.18,1.18,0,0,1-.25-1l1.41-8.1A.68.68,0,0,1,4.91,3H15m1-1H4.91A1.68,1.68,0,0,0,3.26,3.39L1.85,11.5a2.1,2.1,0,0,0,2,2.5H11v4.57c0,1.14.47,3.43,2.28,3.43h.05L16,14V2Z"/></svg>