<svg id="Layer_1" data-name="Layer 1" xmlns="http://www.w3.org/2000/svg" viewBox="0 0 24 24"><defs><style>.cls-1{fill:#004e98;}.cls-2{fill:#029cde;}</style></defs><title>timer</title><path class="cls-1" d="M17,4V7.69a.6.6,0,0,1-.13.37L15,10.55a2.08,2.08,0,0,0,0,2.57l1.94,2.49A.6.6,0,0,1,17,16v3.71H7.91V16A.6.6,0,0,1,8,15.6L10,13.12a2.08,2.08,0,0,0,0-2.57L8,8.06a.6.6,0,0,1-.13-.37V4H17m1.81-1H6.23V4.78h.68V7.69a1.6,1.6,0,0,0,.34,1l1.94,2.49a1.08,1.08,0,0,1,0,1.34L7.25,15a1.6,1.6,0,0,0-.34,1v2.9H6.23v1.81H18.85V18.87H18V16a1.6,1.6,0,0,0-.34-1L15.75,12.5a1.08,1.08,0,0,1,0-1.34l1.94-2.49a1.6,1.6,0,0,0,.34-1V4.78h.81V3Z"/><path class="cls-2" d="M12.69,6.73H9.16v.71l2.26,2.79a.85.85,0,0,0,.66.31h1.23a.85.85,0,0,0,.66-.31l2.26-2.79V6.73Z"/><rect class="cls-2" x="8.71" y="17.35" width="7.63" height="1.63"/></svg>