<svg id="Layer_1" data-name="Layer 1" xmlns="http://www.w3.org/2000/svg" viewBox="0 0 24 24"><defs><style>.cls-1{fill:none;stroke:#004e98;stroke-linejoin:round;}</style></defs><title>user</title><path class="cls-1" d="M16.52,14.28a2.11,2.11,0,0,1-1.08-1.79A6.1,6.1,0,0,0,17,9.34l.4-.78V6.8L17,6.56v-1a3.94,3.94,0,0,0-3.94-3.94h-.26A3.94,3.94,0,0,0,8.87,5.52v1l-.4.24V8.56l.4.78a6.1,6.1,0,0,0,1.58,3.14,2.11,2.11,0,0,1-1.08,1.79C7.42,15.21,4,17.5,4,20.19v.2c0,1.17,0,2.13.78,2.13H21.06c.76,0,.78-1,.78-2.13v-.2C21.84,17.5,18.46,15.21,16.52,14.28Z"/></svg>