<svg id="Layer_1" data-name="Layer 1" xmlns="http://www.w3.org/2000/svg" viewBox="0 0 24 24"><defs><style>.cls-1,.cls-2{fill:none;stroke-miterlimit:10;}.cls-1{stroke:#029cde;}.cls-2{stroke:#004e98;}</style></defs><title>users</title><path class="cls-1" d="M8.14,18.83v-.17c0-1.54,1.36-2.91,2.72-3.86l-.17-.09a1.25,1.25,0,0,1-.5-.45,1.73,1.73,0,0,1-.27-.82A4.34,4.34,0,0,0,11,11.2l.28-.56V9.39L11,9.22V8.48a2.8,2.8,0,0,0-2.8-2.8H8a2.8,2.8,0,0,0-2.8,2.8v.74L5,9.39v1.25l.28.56a4.34,4.34,0,0,0,1.12,2.24,1.5,1.5,0,0,1-.77,1.28C4.21,15.37,1.8,17,1.8,18.92v.14c0,.84,0,1.51.56,1.51H8.78C8.16,20.58,8.14,19.8,8.14,18.83Z"/><path class="cls-2" d="M18.37,13.82a1.73,1.73,0,0,1-.89-1.47,5,5,0,0,0,1.29-2.57l.32-.64V7.69l-.32-.19V6.65a3.23,3.23,0,0,0-3.23-3.23h-.22A3.23,3.23,0,0,0,12.1,6.65V7.5l-.32.19V9.14l.32.64a5,5,0,0,0,1.29,2.57,1.73,1.73,0,0,1-.89,1.47,12.06,12.06,0,0,0-1.65,1c-1.36,1-2.72,2.32-2.72,3.86v.17c0,1,0,1.74.64,1.74H22.09c.62,0,.64-.78.64-1.74v-.17C22.73,16.46,20,14.58,18.37,13.82Z"/></svg>