<svg id="Layer_1" data-name="Layer 1" xmlns="http://www.w3.org/2000/svg" viewBox="0 0 24 24"><defs><style>.cls-1{fill:#004e98;}</style></defs><title>wrench</title><path class="cls-1" d="M7.11,2.82A3.58,3.58,0,0,1,10.63,7.1l6.11,6.37a3.58,3.58,0,1,1-2.84,2.82L7.8,9.92a3.58,3.58,0,0,1-4-4.87l.73.73.39,1.44a.71.71,0,0,0,.5.5l1.47.39.18,0a.71.71,0,0,0,.5-.21L8.64,6.86a.71.71,0,0,0,.18-.69L8.43,4.71a.71.71,0,0,0-.5-.5L6.49,3.82l-.73-.73a3.59,3.59,0,0,1,1.35-.26M17.72,18.92a.81.81,0,0,0,.57-.24l.78-.78a.81.81,0,0,0,.21-.78L19,16.05a.81.81,0,0,0-.57-.57l-1.07-.29-.21,0a.81.81,0,0,0-.57.24l-.78.78a.81.81,0,0,0-.21.78L15.87,18a.81.81,0,0,0,.57.57l1.07.29.21,0M7.11,1.82h0a4.57,4.57,0,0,0-1.72.34L4,2.73,5.06,3.79l.73.73L6,4.71l.26.07,1.28.34.31,1.15L7,7.11,5.83,6.81,5.49,5.53l-.07-.26-.19-.19L4.5,4.35,3.43,3.29l-.57,1.4A4.58,4.58,0,0,0,7.11,11h.32l5.42,5.65a4.58,4.58,0,1,0,4.57-4.23h-.3L11.68,6.75A4.58,4.58,0,0,0,7.11,1.82Zm9.47,15,.63-.63.85.23.23.85-.63.63-.85-.23-.23-.85Z"/></svg>