<svg id="Layer_1" data-name="Layer 1" xmlns="http://www.w3.org/2000/svg" viewBox="0 0 24 24"><defs><style>.cls-1{fill:#004e98;}.cls-2{fill:none;stroke:#029cde;stroke-linecap:round;stroke-miterlimit:10;}</style></defs><title>zoomIn</title><path class="cls-1" d="M9.65,4.22h0a6.34,6.34,0,1,1-5.86,3.9,6.3,6.3,0,0,1,5.86-3.9m0-1.3a7.64,7.64,0,1,0,2.93.59,7.64,7.64,0,0,0-2.93-.59Z"/><path class="cls-1" d="M18.24,14.07h.17a.7.7,0,0,1,.7.7v8.91a0,0,0,0,1,0,0H17.53a0,0,0,0,1,0,0V14.78A.7.7,0,0,1,18.24,14.07Z" transform="translate(44.63 19.28) rotate(135)"/><line class="cls-2" x1="13.5" y1="10.5" x2="5.5" y2="10.5"/><line class="cls-2" x1="9.5" y1="14.5" x2="9.5" y2="6.5"/></svg>