<svg id="Layer_1" data-name="Layer 1" xmlns="http://www.w3.org/2000/svg" viewBox="0 0 24 24"><defs><style>.cls-1{fill:#fff;}</style></defs><title>Wi_antiCloud</title><path class="cls-1" d="M4.26,11.3A3.87,3.87,0,0,0,1,15.12,4,4,0,0,0,5,19H15.88L5.2,8.32A7.08,7.08,0,0,0,4.26,11.3Z"/><path class="cls-1" d="M23,13.82a5.18,5.18,0,0,0-5.18-5.18h-.13A7.1,7.1,0,0,0,7.22,6.1L19.76,18.64A5.13,5.13,0,0,0,23,13.82Z"/><path class="cls-1" d="M7.22,6.1,5.56,4.44A1.5,1.5,0,0,0,3.44,6.56L5.2,8.32A7.14,7.14,0,0,1,7.22,6.1Z"/><path class="cls-1" d="M18,19s0,0,0,0H15.88l3.06,3.06a1.5,1.5,0,0,0,2.12-2.12l-1.3-1.3A5,5,0,0,1,18,19S18,19,18,19Z"/></svg>