<svg id="Layer_1" data-name="Layer 1" xmlns="http://www.w3.org/2000/svg" viewBox="0 0 24 24"><defs><style>.cls-1{fill:#fff;}</style></defs><title>Wi_cognitive</title><path class="cls-1" d="M11,5V5Z"/><path class="cls-1" d="M20.83,15A4.07,4.07,0,0,0,22,12.4a5,5,0,0,0-.92-3.23h0a4.79,4.79,0,0,0-1.35-3.55,3.51,3.51,0,0,0-1.85-.87h0a4.14,4.14,0,0,0-.32-1A3,3,0,0,0,14.67,2,3.17,3.17,0,0,0,12,3.3,3.17,3.17,0,0,0,9.33,2,3,3,0,0,0,6.45,3.77a4.14,4.14,0,0,0-.32,1,3.51,3.51,0,0,0-1.85.87A4.79,4.79,0,0,0,2.93,9.17,5,5,0,0,0,2,12.4,4.07,4.07,0,0,0,3.17,15,5.41,5.41,0,0,0,4,18.61a4.22,4.22,0,0,0,2.82,1.61A3.09,3.09,0,0,0,9.62,22,3,3,0,0,0,12,20.89,3,3,0,0,0,14.38,22a3.09,3.09,0,0,0,2.76-1.77h0A4.22,4.22,0,0,0,20,18.61,5.41,5.41,0,0,0,20.83,15ZM11,20c-.13.27-.47.64-1.45.64a1.82,1.82,0,0,1-1.6-1.23L7.8,19h0l-.46,0a3,3,0,0,1-2.23-1.09,4.19,4.19,0,0,1-.56-2.89c.55-2,2.95-1.75,3.05-1.74a.71.71,0,0,0,.8-.75.72.72,0,0,0-.63-.67,4.33,4.33,0,0,0-4.1,1.66,2.71,2.71,0,0,1-.31-1.09A3.46,3.46,0,0,1,4.1,10l.17-.2h0V9.5a3.63,3.63,0,0,1,.88-2.74,2.12,2.12,0,0,1,1.41-.55h.07l.77.07h0V5.5a1.87,1.87,0,0,1,1.85-2A1.56,1.56,0,0,1,11,5V7a3.25,3.25,0,0,0-2.59-.2.71.71,0,0,0,.28,1.4,2.71,2.71,0,0,1,2,.36c.37.3.34.75.35,1.44l.11,9.64Zm9.26-6.55a4.33,4.33,0,0,0-4.1-1.66.72.72,0,0,0-.63.67.71.71,0,0,0,.8.75c.11,0,2.5-.3,3.05,1.74a4.19,4.19,0,0,1-.56,2.89,3,3,0,0,1-2.23,1.09l-.46,0h0l-.14.44a1.82,1.82,0,0,1-1.6,1.23,1.74,1.74,0,0,1-1.57-1h0L13,10c0-.69-.09-1.14.28-1.44a2.71,2.71,0,0,1,2-.36.71.71,0,0,0,.28-1.4A3.07,3.07,0,0,0,13,7V6s0-.86,0-1c.12-.59.25-1.5,1.67-1.5a1.87,1.87,0,0,1,1.85,2v.78h0l.77-.07h.07a2.12,2.12,0,0,1,1.41.55,3.63,3.63,0,0,1,.88,2.74v.27h0l.17.2a3.46,3.46,0,0,1,.74,2.39A2.71,2.71,0,0,1,20.26,13.45Z"/></svg>