<svg id="Layer_1" data-name="Layer 1" xmlns="http://www.w3.org/2000/svg" viewBox="0 0 24 24"><defs><style>.cls-1{fill:#fff;}</style></defs><title>Wi_downloadCloud</title><path class="cls-1" d="M15,11.7V16h2.62a6.3,6.3,0,0,0,3.8-1.19c3.6-3.6.52-9-3.89-9H17.4A7,7,0,0,0,4.21,8.43,3.81,3.81,0,0,0,4.81,16H8V11.7a.7.7,0,0,1,.7-.7h5.6A.7.7,0,0,1,15,11.7Z"/><path class="cls-1" d="M5.76,17.51l5.3,5.3a.62.62,0,0,0,.88,0l5.3-5.3A.3.3,0,0,0,17,17H14V12.4a.4.4,0,0,0-.4-.4H9.4a.4.4,0,0,0-.4.4V17H6A.3.3,0,0,0,5.76,17.51Z"/></svg>