<svg id="Layer_1" data-name="Layer 1" xmlns="http://www.w3.org/2000/svg" viewBox="0 0 24 24"><defs><style>.cls-1{fill:none;}.cls-2{fill:#fff;}</style></defs><title>Wi_notVisible</title><path class="cls-1" d="M8,11a4,4,0,0,0,4.8,3.92L8.08,10.2A4,4,0,0,0,8,11Z"/><path class="cls-1" d="M12,7a4,4,0,0,0-2.21.67l5.54,5.54A4,4,0,0,0,12,7Z"/><path class="cls-2" d="M12,7a4,4,0,0,1,3.33,6.21l2.73,2.73A13.13,13.13,0,0,0,22,12c-2.25-3.61-4.37-7-10-7a10.07,10.07,0,0,0-4.09.78L9.79,7.67A4,4,0,0,1,12,7Z"/><path class="cls-2" d="M12,15a4,4,0,0,1-3.92-4.8L5.37,7.49A22.37,22.37,0,0,0,2,12c2.25,3.61,6.62,6,10,6a9.73,9.73,0,0,0,3.24-.64L12.8,14.92A4,4,0,0,1,12,15Z"/><path class="cls-2" d="M8.08,10.2l4.72,4.72a4,4,0,0,0,2.53-1.71L9.79,7.67A4,4,0,0,0,8.08,10.2Z"/><path class="cls-2" d="M18.06,15.94a13.5,13.5,0,0,1-2.82,1.42l3.2,3.2a1.5,1.5,0,0,0,2.12-2.12Z"/><path class="cls-2" d="M5.06,2.94A1.5,1.5,0,0,0,2.94,5.06L5.37,7.49a8.74,8.74,0,0,1,2.54-1.7Z"/></svg>