<svg id="Layer_1" data-name="Layer 1" xmlns="http://www.w3.org/2000/svg" viewBox="0 0 24 24"><defs><style>.cls-1{fill:#fff;}</style></defs><title>Wi_read</title><path class="cls-1" d="M12.61,6.13l-.11,0-.11,0,.11.1Z"/><path class="cls-1" d="M20.94,3l-3,1.12A16.87,16.87,0,0,1,20,4V17l-7,2H12L5,17V4a16.87,16.87,0,0,1,2.05.12L4.06,3,3,4.06V17.78l9.5,3.17L22,17.78V4.06Z"/><path class="cls-1" d="M7.05,4.12l5.34,2A10.17,10.17,0,0,0,7.05,4.12Z"/><path class="cls-1" d="M12.61,6.13l5.34-2A10.17,10.17,0,0,0,12.61,6.13Z"/><rect class="cls-1" x="12" y="6" width="1" height="14"/></svg>