<svg id="Layer_1" data-name="Layer 1" xmlns="http://www.w3.org/2000/svg" viewBox="0 0 24 24"><defs><style>.cls-1{fill:#fff;}</style></defs><title>Wi_refresh</title><path class="cls-1" d="M19,14H15.92a1,1,0,0,0,0,2h1.64A7.26,7.26,0,0,1,4.84,12.19a1.06,1.06,0,0,0-1.05-.93,1.07,1.07,0,0,0-1.07,1.2A9.39,9.39,0,0,0,19,17.58v1.5a1,1,0,0,0,2,0V14Z"/><path class="cls-1" d="M12.95,2.33A9.37,9.37,0,0,0,6,5.42V3.92a1,1,0,0,0-2,0V9H9.08a1,1,0,1,0,0-2H7.45a7.26,7.26,0,0,1,12.71,3.81,1.06,1.06,0,0,0,1.05.93,1.07,1.07,0,0,0,1.07-1.2A9.41,9.41,0,0,0,12.95,2.33Z"/></svg>