<svg id="Layer_1" data-name="Layer 1" xmlns="http://www.w3.org/2000/svg" viewBox="0 0 24 24"><defs><style>.cls-1{fill:#fff;}</style></defs><title>Wi_saveHdd</title><path class="cls-1" d="M6.83,8a.33.33,0,0,0-.23.57L12.23,14a.38.38,0,0,0,.54,0L18.4,8.57A.33.33,0,0,0,18.17,8H15V3H10V8Z"/><path class="cls-1" d="M21.39,13H16l-3,3a.81.81,0,0,1-1,0L9,13H2.61a.61.61,0,0,0-.61.61v6.77a.61.61,0,0,0,.61.61H21.39a.61.61,0,0,0,.61-.61V13.61A.61.61,0,0,0,21.39,13ZM5,17.73a1,1,0,1,1,1-1A1,1,0,0,1,5,17.73Z"/></svg>