<svg id="Layer_1" data-name="Layer 1" xmlns="http://www.w3.org/2000/svg" viewBox="0 0 24 24"><defs><style>.cls-1{fill:none;}.cls-2{fill:#fff;}</style></defs><title>Wi_save1</title><path class="cls-1" d="M15,6.22V2H14V5.28a.46.46,0,0,1-.46.46H12.46A.46.46,0,0,1,12,5.28V2H7V6.22A.78.78,0,0,0,7.78,7h6.45A.78.78,0,0,0,15,6.22Z"/><path class="cls-2" d="M16,11v4h4V4.66L16.67,1H6.21A1.21,1.21,0,0,0,5,2.21V15H9V11ZM7,6.22V2h5V5.28a.46.46,0,0,0,.46.46h1.08A.46.46,0,0,0,14,5.28V2h1V6.22a.78.78,0,0,1-.78.78H7.78A.78.78,0,0,1,7,6.22Z"/><path class="cls-2" d="M18.09,17H15V12H10v5H6.91a.27.27,0,0,0-.19.47l5.38,5.38a.57.57,0,0,0,.81,0l5.38-5.38A.27.27,0,0,0,18.09,17Z"/></svg>