<svg id="Layer_1" data-name="Layer 1" xmlns="http://www.w3.org/2000/svg" viewBox="0 0 24 24"><defs><style>.cls-1{fill:#fff;}</style></defs><title>Wi_timer</title><path class="cls-1" d="M18.54,8.39A1.66,1.66,0,0,0,19,7.29V4h1V2H4V4h.86V7.29a1.66,1.66,0,0,0,.43,1.1l2.46,2.78a1.1,1.1,0,0,1,0,1.5L5.29,15.46a1.66,1.66,0,0,0-.43,1.1v3.25H4v2H20v-2H19V16.56a1.66,1.66,0,0,0-.43-1.1l-2.46-2.78a1.1,1.1,0,0,1,0-1.5ZM17,17v2.5H6.92V17Zm-3.2-5.57a1.16,1.16,0,0,1-.93.49H11.13a1.16,1.16,0,0,1-.93-.49L7,7.1V6H17V7.1Z"/></svg>