<svg id="Layer_1" data-name="Layer 1" xmlns="http://www.w3.org/2000/svg" viewBox="0 0 24 24"><defs><style>.cls-1{fill:#fff;}</style></defs><title>Wi_unlock</title><path class="cls-1" d="M18.11,8H8.82l-.5-1.24a3.13,3.13,0,1,1,5.8-2.36A1,1,0,1,0,16,3.66,5.13,5.13,0,1,0,6.47,7.52l.2.48H5.89A1.89,1.89,0,0,0,4,9.89V21.11A1.89,1.89,0,0,0,5.89,23H18.11A1.89,1.89,0,0,0,20,21.11V9.89A1.89,1.89,0,0,0,18.11,8Zm-5,8.41.37,3.35H10.44l.34-3.37a2.61,2.61,0,0,1-.86-3.84,1.46,1.46,0,0,1,.43-.44,2.6,2.6,0,0,1,4.16,2A2.54,2.54,0,0,1,13.13,16.41Z"/></svg>