<svg id="Layer_1" data-name="Layer 1" xmlns="http://www.w3.org/2000/svg" viewBox="0 0 24 24"><defs><style>.cls-1{fill:#fff;}</style></defs><title>Wi_users</title><path class="cls-1" d="M10.11,15.83a1.58,1.58,0,0,1-.79-1.34,4.6,4.6,0,0,0,1.15-2.35l.29-.59V10.24l-.29-.18V9.28A2.91,2.91,0,0,0,7.6,6.33H7.4A2.91,2.91,0,0,0,4.53,9.28v.78l-.29.18v1.32l.29.59a4.6,4.6,0,0,0,1.15,2.35,1.58,1.58,0,0,1-.79,1.34C3.47,16.53,1,18.25,1,20.26v.15C1,21.29,1,22,1.57,22H13.43c.55,0,.57-.71.57-1.59v-.15C14,18.25,11.53,16.53,10.11,15.83Z"/><path class="cls-1" d="M18.21,14.92a1.81,1.81,0,0,1-1-1.54,5.16,5.16,0,0,0,1.42-2.7L19,10V8.48l-.36-.2V7.39A3.47,3.47,0,0,0,15.12,4h-.24a3.47,3.47,0,0,0-3.54,3.39v.89l-.36.2V10l.36.67a5.16,5.16,0,0,0,1.42,2.7,1.81,1.81,0,0,1-1,1.54C10,15.71,7,17.69,7,20v.17c0,1,0,1.83.7,1.83H22.3c.68,0,.7-.82.7-1.83V20C23,17.69,20,15.71,18.21,14.92Z"/></svg>